<svg xmlns="http://www.w3.org/2000/svg" width="42" height="28" viewBox="0 0 42 28"><defs><style>.a{fill:#fff;}</style></defs><path class="a" d="M9.333,11.5H32.667v14H9.333Zm29.167,7A3.5,3.5,0,0,0,42,22v7a3.5,3.5,0,0,1-3.5,3.5H3.5A3.5,3.5,0,0,1,0,29V22a3.5,3.5,0,0,0,3.5-3.5A3.5,3.5,0,0,0,0,15V8A3.5,3.5,0,0,1,3.5,4.5h35A3.5,3.5,0,0,1,42,8v7A3.5,3.5,0,0,0,38.5,18.5ZM35,10.917a1.75,1.75,0,0,0-1.75-1.75H8.75A1.75,1.75,0,0,0,7,10.917V26.083a1.75,1.75,0,0,0,1.75,1.75h24.5A1.75,1.75,0,0,0,35,26.083Z" transform="translate(0 -4.5)"/></svg>